<?xml version="1.0" encoding="UTF-8"?>
<svg id="graphics" xmlns="http://www.w3.org/2000/svg" xmlns:xlink="http://www.w3.org/1999/xlink" viewBox="0 0 543.22 544.68">
  <defs>
    <style>
      .cls-1 {
        fill: url(#linear-gradient);
        stroke-width: 0px;
      }
    </style>
    <linearGradient id="linear-gradient" x1="-266.14" y1="674.08" x2="865" y2="-199.41" gradientUnits="userSpaceOnUse">
      <stop offset="0" stop-color="#4ac7b3"/>
      <stop offset="1" stop-color="#0091fc"/>
    </linearGradient>
  </defs>
  <path class="cls-1" d="M352.81,9.53c-10.03,3.18-54.62,6.45-59.5,6.45-45.61,0-96.07-6.82-128.27-13.25-43.59-8.7-87.67,3.64-120.96,33.84C12.91,64.83-.9,104.64.05,143.64c2.38,98.11,37.86,197.34,65.98,309.96,8.22,32.94,20.79,62.89,43.58,78.94,18.33,12.9,41.93,16.54,70.94,5.9,36.24-13.3,82.57-45.36,113.19-68.58,35.84,50.81,69.35,75.27,102.07,74.46,52.49-1.18,71.3-52.34,80.9-90.72,21.26-85.13,58-225.1,65.98-309.96,8.61-91.65-86.83-166.81-189.87-134.12ZM252.28,455.07c-9.95,7.1-39.35,29.04-64.16,41.85-33.23,17.16-56.23,10.24-66.43-3.2-6.9-9.09-14.04-24.1-20.25-48.97-16.05-64.25-45.59-159.98-58.53-236.91-7.47-44.43-6.32-60.02-6.44-66.86-.52-27.83,9.25-56.62,32.14-77.38,24.64-22.35,57.19-31.49,89.3-25.08,29.02,5.8,72.25,11.83,114.34,13.49-32.18,22.5-49.84,37.01-86.07,27.72-9.76-2.5-19.71,3.38-22.22,13.15-2.5,9.77,3.38,19.71,13.15,22.22,87.96,22.53,98.62-50.5,212.42-76.08,52.06-5.35,96.78,22.36,110.97,61.42,39.02,107.46-147.79,282.98-248.21,354.63ZM441.28,444.75c-22.37,89.59-65.98,77.7-118.81,2.42,58.71-48.15,120.63-109.93,163.66-173.26-14.4,60.88-32.97,123.25-44.85,170.84Z"/>
</svg>